<?xml version="1.0" encoding="UTF-8"?>
<!DOCTYPE svg PUBLIC "-//W3C//DTD SVG 1.1//EN" "http://www.w3.org/Graphics/SVG/1.1/DTD/svg11.dtd">
<!-- Creator: CorelDRAW 2020 (64-Bit) -->
<svg xmlns="http://www.w3.org/2000/svg" xml:space="preserve" width="22.8852cm" height="22.8852cm" version="1.1" style="shape-rendering:geometricPrecision; text-rendering:geometricPrecision; image-rendering:optimizeQuality; fill-rule:evenodd; clip-rule:evenodd"
viewBox="0 0 22885.22 22885.2"
 xmlns:xlink="http://www.w3.org/1999/xlink"
 xmlns:xodm="http://www.corel.com/coreldraw/odm/2003">
 <defs>
  <style type="text/css">
   <![CDATA[
    .fil0 {fill:#304C8B}
   ]]>
  </style>
 </defs>
 <g id="Layer_x0020_1">
  <metadata id="CorelCorpID_0Corel-Layer"/>
  <g id="_1823689872">
   <path class="fil0" opacity="0.03" d="M11442.61 4624.54c3765.54,0 6818.07,3052.53 6818.07,6818.05 0,3765.57 -3052.53,6818.05 -6818.07,6818.05 -3765.54,0 -6818.02,-3052.48 -6818.02,-6818.05 0,-3765.52 3052.48,-6818.05 6818.02,-6818.05zm8462.75 5521.43l43.93 207.31c30.13,142.06 129.15,258.3 284.37,225.36 148.82,-31.5 200.04,-183.57 171.13,-319.74l-44.33 -209.38 -455.1 96.45zm-458.77 -2555.97l198.46 456.96 449.06 -467.67 -647.52 10.71zm-577.1 -1736.06l332.1 -230.26 211.44 304.89c74.73,107.72 76.15,234.08 -37.9,313.28 -87.07,60.48 -218.25,26.44 -276.75,-57.98l-228.89 -329.93zm-221.95 153.93l227.65 328.31c71.14,102.56 87.92,281.89 -26.07,360.9 -148.72,103.16 -283.52,9.04 -373.53,-120.78l-210.26 -303.19 382.21 -265.24zm-1988.99 -2735.79c-217.59,299.7 -472.94,634.23 -773.7,855.3l506.06 331.97 625.01 -952.72 -357.37 -234.55zm-3567.63 -744.2l-97.6 499.43 347.02 67.82c153.75,30.15 306.44,-30.88 338.35,-194.26 31.65,-161.57 -88.44,-275.38 -238.53,-304.73l-349.24 -68.26zm-4690.59 371.7l155.25 484.56 336.74 -107.88c149.23,-47.8 253.47,-174.76 202.8,-333.31 -50.08,-156.41 -210.67,-198.59 -355.85,-152.04l-338.94 108.67zm-1710.27 90.66c-289.22,161.24 -310.24,474.34 -159.84,744.02 150.37,269.65 427.89,416.1 716.96,254.84 289.1,-161.21 310.39,-474.52 159.97,-744.07 -150.39,-269.66 -427.97,-416.15 -717.09,-254.79zm-1718.53 2219.66l149.23 -153.33c72.23,-74.19 169.99,-105.97 251.56,-26.67 84.13,81.88 53.7,176.85 -21.17,253.73l-147.86 151.89 -231.76 -225.62zm-738.49 1420.15c-138.99,211.83 -389.12,183.28 -579.07,58.75 -190.35,-124.86 -315.99,-342.22 -176.62,-554.59 139.01,-211.84 389.15,-183.31 579.14,-58.73 190.31,124.91 315.82,342.17 176.55,554.57zm14992.5 9161.66l-215.06 -107.54 117.04 -234.47c31.11,-62.13 98.56,-80.26 159.41,-49.82 63.68,31.83 87.82,93.19 55.78,157.36l-117.17 234.47zm339.2 169.4l269.78 134.85 114.26 -228.53c45.77,-91.64 56.84,-191.39 -47.01,-243.33 -94.79,-47.42 -180.21,23.29 -221.85,106.61l-115.18 230.4zm-718.23 1567.15c-156.79,199.78 -402.91,150.03 -581.93,9.6 -178.76,-140.3 -285.66,-368.16 -129.2,-567.55 156.8,-199.77 402.94,-150.03 581.98,-9.58 178.77,140.15 285.56,368.22 129.15,567.53zm-10389.73 1931.32l-159.58 474.05 362.3 121.84c120.58,40.53 278.95,-28.24 320.1,-150.42 49.82,-147.73 -19.39,-276.06 -164.8,-324.97l-358.02 -120.5zm12675.5 -7892.85l-403.71 -17.53 -33.79 773.78 -269.81 -11.77 33.74 -773.78 -464.73 -20.29 -37.77 865.37 -278.61 -12.19 51.73 -1187.53 1695.63 73.88 -51.78 1187.61 -278.64 -12.16 37.74 -865.39zm-507.66 -1573.25l50.31 237c63.94,301.05 -54.21,595.79 -376.37,664.07 -322.52,68.41 -551.37,-150.06 -615.77,-453.61l-117.15 -552.57 727.78 -154.42 -136.27 -642.83 -727.88 154.39 -66.97 -315.47 1660.27 -352.24 66.91 315.56 -668.1 141.61 136.3 642.91 668.1 -141.75 67.04 315.58 -668.2 141.77zm-1466.17 -2388.79l-378.51 2.19 -117.85 -312.66 1848.79 2.04 74.32 171.25 -1259.16 1354.91 -147.3 -297.46 259.92 -275.12 -280.21 -645.15zm20.11 -1086.01c38.36,169.81 -16.94,354.02 -165.39,457.02 -287.34,199.31 -575.27,35.52 -754.4,-222.62l-406.49 -586.09 1394.61 -967.28 406.47 586.06c160.49,231.45 188.52,525.03 -65.7,701.29 -124.86,86.61 -276,91.36 -409.1,31.62zm-1715.15 -1470.66l366.77 -1298.17 254.22 224.09 -285.82 969.15 943.07 -329.81 230.71 247.54 -1826.62 606.91 -231.06 -248.02 548.73 -171.69zm-1848.61 -1097.82c392.72,-287.99 646.75,-655.61 927.61,-1050.31l18.12 -25.48 877.95 575.94 -777.97 1185.88 151.43 99.23 -332.33 506.76 -254.61 -140.22 191.77 -292.22 -865.16 -567.52 -179.48 273.45 -254.58 -140.25 344.64 -525.35 152.61 100.09zm-679.3 -1553.35l-153.1 374.1 716.78 293.38 -102.25 250.04 -716.88 -293.46 -176.31 430.45 801.68 328.23 -105.73 258.01 -1100.08 -450.38 643.04 -1570.43 1100.07 450.28 -105.63 257.96 -801.59 -328.18zm-1723.58 -487.89l-68.36 349.5 377.07 73.78c316.35,61.88 539.08,300.53 474.15,632.7 -64.89,331.95 -363.54,471.17 -677.88,409.7l-693.65 -135.57 325.64 -1665.59 1098.14 214.65 -53.46 273.63 -781.65 -152.8zm-1085.36 387.35c166.68,74.52 281.19,231.37 272.85,423.09 -16.31,373.27 -361.5,477.54 -683.94,463.57 -215.71,-9.42 -379.68,-83.2 -554.49,-203.93l-25.33 -17.43 149.88 -245.8 28.58 21.07c123.93,91.35 256.67,162.75 413.41,169.57 154.63,6.79 342.66,-40.63 350.74,-225.18 6.76,-154.19 -128.63,-245.98 -270.97,-252.18l-278.77 -12.13 11.64 -269.81 281.17 12.11c123.03,5.29 226.98,-94.69 232.28,-217.2 6.04,-136.84 -112.3,-195.08 -233.8,-200.37 -163.72,-7.23 -274.59,40.14 -413.86,118.95l-28.62 16.16 -132.46 -240.28 27.7 -15.9c185.92,-106.67 345.5,-166.86 563.76,-157.34 269.86,11.82 554.02,163.46 540.78,466.64 -7.07,160.98 -110.98,295.78 -250.55,366.39zm-2173.07 -442.67l43.58 401.78 770.06 -83.51 29.2 268.57 -770.07 83.51 50.13 462.46 861.09 -93.4 30.12 277.27 -1181.8 128.17 -182.97 -1687.22 1181.8 -128.16 30.05 277.19 -861.19 93.34zm-1745.48 445.35l108.58 339.1 365.84 -117.18c306.95,-98.32 617.29,3.54 720.55,325.73 103.62,323.14 -90.07,587.68 -396.46,685.83l-673.05 215.57 -517.73 -1616.22 1065.66 -341.42 85.03 265.65 -758.42 242.94zm-1659.21 438.2c450.95,-251.51 896.74,-89.53 1141.84,349.65 244.39,438.09 147.2,904.58 -302.18,1155.34 -450.84,251.51 -896.68,89.47 -1141.78,-349.65 -244.39,-438.1 -147.33,-904.51 302.12,-1155.34zm-2005.81 2055.94l155.14 150.89 188.86 -194.18c239.56,-246.32 558.67,-311.55 818.26,-59.04 259.25,252.24 205.14,574.32 -34.88,821.08l-520.15 534.79 -1216.63 -1183.43 839.48 -863.04 278.1 270.53 -508.18 522.4zm-1408.29 1116.29c288.37,-439.47 751.01,-517.04 1183.63,-233.13 432.23,283.57 545.27,739.65 257.31,1178.49 -288.24,439.36 -750.9,517.09 -1183.47,233.24 -432.29,-283.6 -545.46,-739.76 -257.47,-1178.6zm-390.86 2227.53l37.98 -92.78 -497.73 -576.71 211.08 -474.91 606.66 766.01 997.62 -214.2 -188.08 499.92 -776.96 139.7 -39.62 96.78 603.71 247.2 -180.15 439.74 -1570.44 -643.21 180.21 -439.72 615.72 252.18zm-231.29 1315.52l715.15 907.39 -55.99 286.41 -1665.63 -325.54 91.15 -466.41 874.22 170.81 -728.11 -918.7 54.44 -277.81 1665.56 325.54 -91.13 466.31 -859.66 -168zm17162.26 5841.55c130.57,-115.08 318.83,-155.12 480.46,-74.4 313.07,156.51 307.62,486.8 166.76,768.59l-352.96 706.25 -1518.06 -758.68 353.06 -706.33c125.67,-251.45 370.23,-417.23 646.52,-279.13 135.63,67.72 212.6,198.49 224.22,343.7zm-1861.72 1423.36c323.27,-411.94 793.14,-450.63 1198.99,-132.22 407.04,319.35 481.23,782.61 156.85,1196.11 -323.27,412.02 -793.27,450.66 -1199.12,132.22 -407.04,-319.35 -481.13,-782.69 -156.72,-1196.11zm-832.27 1755.73l76.22 -65.18 -180 -740.32 404.25 -326.43 190.77 958.46 985.59 264.05 -395.43 359.26 -755.22 -230.06 -79.3 68.08 424.57 495.37 -360.73 309.31 -1104.61 -1288.52 360.83 -309.2 433.06 505.18zm-1071.11 -62.29l910.64 1432.15 -401.07 254.91 -910.55 -1432.14 400.98 -254.92zm-1272.46 1562.92l346.99 804.24 -436.26 188.16 -672.38 -1558.14 260 -112.27 1052.57 516.08 -352.98 -817.97 436.34 -188.27 672.3 1558.28 -267.9 115.59 -1038.68 -505.7zm-4777.57 1320.19l-316.76 -60.56 318.13 -1667.05 316.79 60.56 -318.16 1667.05zm-1059.72 -949.06l237.13 803.57 -351.62 -100.85 -209.25 -768.83 -265.03 -89.13 -206.67 614.22 -305.54 -102.84 541.22 -1608.51 694.53 233.69c300.87,101.27 453.87,374.7 350.59,681.76 -73.73,218.95 -267.72,324.66 -485.36,336.92zm-1109.91 -1511.99l277.53 164.26 -489.8 828.07c-224.07,378.92 -600.23,516.8 -992.17,284.96 -392.35,-231.94 -452.44,-627.59 -228.12,-1006.8l489.72 -828 277.61 164.13 -489.77 828.04c-125.05,211.47 -141.52,464.07 92.57,602.53 233.98,138.42 447.48,2.35 572.58,-209.09l489.85 -828.1zm-1275.04 -563.83l-281.27 110.61 -9.27 -35.31c-41.38,-156.05 -105.99,-281.55 -228.33,-389.85 -251.43,-222.38 -548.08,-144.86 -756.84,91.1 -208.06,235.22 -248.7,540.6 1.83,762.32 122.41,108.27 254.71,157.06 414.68,179.1l36.11 4.93 -75.4 292.71 -30.05 -5.78c-207.03,-40.2 -379.34,-111.29 -538.79,-252.39 -389.1,-344.13 -384.89,-816.04 -49.93,-1194.5 334.74,-378.28 803.14,-439.95 1191.79,-96 159.85,141.36 251.07,303.6 316.05,504.02l9.42 29.04zm-1845.07 -1737.01l-322.21 243.94 467.36 617.61 -215.39 162.94 -467.34 -617.66 -370.98 280.78 522.59 690.71 -222.29 168.26 -717.2 -947.92 1353.29 -1023.98 717.24 947.9 -222.31 168.23 -522.76 -690.81zm-2070.17 -1087.37l296.76 9.83 -6.07 36.53c-25.01,152.69 -13.65,327.43 55.87,467.55 58.46,117.92 165.28,230.08 304.27,161.21 277.96,-137.75 -211.91,-847.15 317.05,-1109.4 298.95,-148.25 547,52.79 679.69,320.38 93.03,187.57 108.49,367.37 80.1,572.41l-3.98 28.76 -295.03 -7.23 5.55 -36.43c22.33,-148.97 21.04,-303.11 -47.19,-440.62 -46.67,-94.12 -149.64,-210.98 -266.19,-153.26 -284.97,141.23 193.4,856.44 -311.22,1106.5 -325.28,161.19 -574.19,-33.63 -719.78,-327.35 -95.25,-192.08 -121.4,-388.01 -93.65,-599.64l3.82 -29.24zm18075.75 -1851.55l447.15 -0.91 -362.22 262.17 138.96 425.09 -361.3 -263.65 -361.4 263.65 139.09 -425.09 -362.33 -262.17 447.23 0.91 137.41 -425.68 137.41 425.68zm-17709.94 0l447.21 -0.91 -362.3 262.17 138.95 425.09 -361.29 -263.65 -361.35 263.65 139.06 -425.09 -362.33 -262.17 447.23 0.91 137.39 -425.68 137.43 425.68zm-755.55 -1699.17l-3.85 -569.88 -628.45 4.24 -3.22 -475.19 1697.15 -11.49 3.1 475.19 -689.45 4.7 3.9 569.92 689.52 -4.67 3.18 475.19 -1697.1 11.51 -3.15 -475.16 628.37 -4.36zm9716.44 7867.65l354.76 -73.21 510.61 700.81 263.12 -825.21 373.38 -43.57 -431.46 1127.56 103.31 641.82 -318.37 51.27 -102.64 -637.56 -753.44 -926.63 -12.33 249.34 -518.61 -25.42 -69.49 1416.6 -322.01 -15.8 69.52 -1416.63 -518.74 -25.5 13.66 -278.49 1359.48 66.73 -0.75 13.89zm213.95 -7109.62l850.26 0 0 -2418.74 -850.26 0 0 674.14 156.02 0 0 1046.02 -156.02 0 0 698.58zm-1.11 -840.33l0 -762.5 -1193.42 0 0 762.5 1193.42 0zm-2044.75 -1578.41l0 2418.74 850.17 0 0 -698.58 -155.89 0 0 -1046.02 155.89 0 0 -674.14 -850.17 0zm1448.05 -5427.02l1648.7 4340.4 4637.5 226.73 -3618.56 2909.31 1217.4 4480.54 -3885.04 -2542.33 -3885.01 2542.33 1217.4 -4480.54 -3618.56 -2909.31 4637.52 -226.73 1648.65 -4340.4zm0 -4806.22c-6319.58,0 -11442.61,5123.04 -11442.61,11442.59 0,6319.6 5123.03,11442.61 11442.61,11442.61 6319.58,0 11442.61,-5123.01 11442.61,-11442.61 0,-6319.55 -5123.03,-11442.59 -11442.61,-11442.59z"/>
  </g>
 </g>
</svg>
