<?xml version="1.0" encoding="UTF-8"?>
<!DOCTYPE svg PUBLIC "-//W3C//DTD SVG 1.1//EN" "http://www.w3.org/Graphics/SVG/1.1/DTD/svg11.dtd">
<!-- Creator: CorelDRAW 2020 (64-Bit) -->
<svg xmlns="http://www.w3.org/2000/svg" xml:space="preserve" width="5.56695cm" height="3.43892cm" version="1.1" style="shape-rendering:geometricPrecision; text-rendering:geometricPrecision; image-rendering:optimizeQuality; fill-rule:evenodd; clip-rule:evenodd"
viewBox="0 0 7253.41 4480.71"
 xmlns:xlink="http://www.w3.org/1999/xlink"
 xmlns:xodm="http://www.corel.com/coreldraw/odm/2003">
 <defs>
  <style type="text/css">
   <![CDATA[
    .fil0 {fill:#1A3A8E}
   ]]>
  </style>
 </defs>
 <g id="Layer_x0020_1">
  <metadata id="CorelCorpID_0Corel-Layer"/>
  <path class="fil0" d="M268.04 268.04l6717.33 0 0 3944.63 -6717.33 0 0 -3944.63zm-7 -268.04l6731.32 0c143.61,0 261.04,117.43 261.04,261.04l0 3958.64c0,143.6 -117.43,261.03 -261.04,261.03l-6731.32 0c-143.61,0 -261.04,-117.43 -261.04,-261.03l0 -3958.64c0,-143.61 117.43,-261.04 261.04,-261.04z"/>
  <path class="fil0" d="M1670.11 1663.78l3913.14 0 0 -204.97 -3913.14 0 0 204.97zm0 1358.17l3913.14 0 0 -204.97 -3913.14 0 0 204.97zm0 -679.09l2870.11 0 0 -204.97 -2870.11 0 0 204.97z"/>
 </g>
</svg>
