<svg version="1.0" xmlns="http://www.w3.org/2000/svg"
 width="26.000000pt" height="21.000000pt" viewBox="0 0 38.000000 27.000000"
 preserveAspectRatio="xMidYMid meet">

<g transform="translate(0.000000,27.000000) scale(0.100000,-0.100000)"
fill="#1b3a8e" stroke="none">
<path d="M62 235 c-42 -20 -52 -29 -52 -49 0 -30 8 -36 35 -26 18 7 19 8 2 15
-27 11 -20 21 32 44 60 26 148 28 214 5 56 -19 65 -31 41 -49 -20 -15 -21 -15
33 -15 4 0 8 10 8 23 0 17 -13 28 -54 50 -75 37 -181 38 -259 2z"/>
<path d="M67 145 c-15 -36 -27 -81 -27 -100 l0 -35 150 0 150 0 0 38 c0 44
-37 162 -51 162 -13 0 -11 -10 11 -75 11 -32 20 -69 20 -82 l0 -24 -127 3
c-149 3 -151 5 -109 98 27 60 32 80 18 80 -5 0 -20 -29 -35 -65z"/>
<path d="M150 170 c-11 -11 -20 -31 -20 -45 0 -55 77 -87 113 -47 37 41 6 112
-48 112 -14 0 -34 -9 -45 -20z m71 -10 c23 -13 25 -52 4 -70 -8 -7 -25 -10
-39 -6 -33 8 -43 42 -20 67 20 22 28 23 55 9z"/>
</g>
</svg>
