<svg version="1.0" xmlns="http://www.w3.org/2000/svg"
 width="26.000000pt" height="21.000000pt" viewBox="0 0 36.000000 36.000000"
 preserveAspectRatio="xMidYMid meet">

<g transform="translate(0.000000,36.000000) scale(0.100000,-0.100000)"
fill="#1b3a8e" stroke="none">
<path d="M94 331 c-123 -75 -118 -249 9 -310 55 -27 99 -27 154 0 75 36 114
120 93 199 -10 37 -26 58 -36 47 -3 -2 1 -25 7 -50 25 -91 -35 -176 -130 -184
-62 -6 -108 21 -139 78 -43 80 -16 154 72 198 48 24 66 23 142 -6 8 -3 14 1
14 9 0 39 -132 52 -186 19z"/>
<path d="M138 264 c-26 -56 42 -111 76 -62 32 45 15 88 -36 88 -21 0 -32 -7
-40 -26z m70 -14 c2 -14 -4 -34 -13 -45 -15 -20 -15 -20 -30 -1 -16 21 -20 58
-8 70 16 16 48 1 51 -24z"/>
<path d="M110 148 c-11 -12 -20 -32 -20 -45 0 -22 3 -23 90 -23 87 0 90 1 90
23 0 24 -33 67 -51 67 -6 0 2 -15 17 -32 l27 -33 -41 -3 c-23 -2 -61 -2 -84 0
l-41 3 27 33 c31 36 19 45 -14 10z"/>
</g>
</svg>
