<svg version="1.0" xmlns="http://www.w3.org/2000/svg"
 width="26.000000pt" height="21.000000pt" viewBox="0 0 32.000000 36.000000"
 preserveAspectRatio="xMidYMid meet">

<g transform="translate(0.000000,36.000000) scale(0.100000,-0.100000)"
fill="#1b3a8e" stroke="none">
<path d="M102 327 c-59 -63 14 -197 86 -158 24 13 52 70 52 105 0 66 -93 101
-138 53z m96 -22 c17 -21 19 -32 11 -58 -5 -18 -19 -40 -31 -50 -21 -18 -22
-17 -45 5 -34 34 -40 81 -14 107 28 28 55 27 79 -4z"/>
<path d="M62 134 c-28 -19 -52 -65 -52 -99 l0 -25 150 0 c146 0 150 1 150 21
0 55 -62 128 -97 115 -12 -5 -8 -12 18 -29 18 -12 39 -37 46 -54 l13 -33 -131
0 -130 0 6 23 c4 12 22 37 41 55 19 18 34 34 34 37 0 10 -26 4 -48 -11z"/>
</g>
</svg>
