<svg version="1.0" xmlns="http://www.w3.org/2000/svg"
 width="26.000000pt" height="21.000000pt" viewBox="0 0 25.000000 35.000000"
 preserveAspectRatio="xMidYMid meet">

<g transform="translate(0.000000,35.000000) scale(0.100000,-0.100000)"
fill="#1b3a8e" stroke="none">
<path d="M73 258 l-61 -83 106 -5 107 -5 0 -70 c0 -68 -1 -70 -25 -70 -22 0
-25 5 -28 38 -3 36 -5 38 -35 35 -29 -3 -32 -6 -35 -41 -3 -32 -7 -37 -28 -37
-22 0 -24 3 -24 54 0 30 -4 58 -10 61 -6 4 -10 -20 -10 -64 l0 -71 50 0 50 0
0 35 c0 19 5 35 10 35 6 0 10 -16 10 -35 l0 -35 50 0 50 0 0 95 0 95 -95 0
c-52 0 -95 2 -95 5 0 9 74 105 81 105 3 0 23 -19 44 -42 22 -23 41 -36 43 -30
4 12 -74 112 -87 112 -4 0 -34 -37 -68 -82z"/>
</g>
</svg>
