<svg version="1.0" xmlns="http://www.w3.org/2000/svg"
 width="26.000000pt" height="21.000000pt" viewBox="0 0 32.000000 22.000000"
 preserveAspectRatio="xMidYMid meet">

<g transform="translate(0.000000,22.000000) scale(0.100000,-0.100000)"
fill="#1b3a8e" stroke="none">
<path d="M12 208 c3 -10 43 -14 141 -16 l137 -3 0 -79 0 -80 -130 0 -130 0 0
64 c0 36 -4 68 -10 71 -6 4 -10 -23 -10 -74 l0 -81 150 0 150 0 0 105 0 105
-151 0 c-116 0 -150 -3 -147 -12z"/>
<path d="M55 150 c3 -6 50 -10 106 -10 59 0 99 4 99 10 0 6 -42 10 -106 10
-67 0 -103 -4 -99 -10z"/>
<path d="M55 110 c-3 -5 0 -13 8 -16 23 -8 102 0 102 11 0 14 -102 19 -110 5z"/>
</g>
</svg>
