<svg version="1.0" xmlns="http://www.w3.org/2000/svg"
 width="26.000000pt" height="21.000000pt" viewBox="0 0 32.000000 22.000000"
 preserveAspectRatio="xMidYMid meet">

<g transform="translate(0.000000,22.000000) scale(0.100000,-0.100000)"
fill="#1b3a8e" stroke="none">
<path d="M10 115 l0 -105 150 0 150 0 0 105 0 105 -150 0 -150 0 0 -105z m240
71 c0 -2 -21 -20 -46 -39 l-47 -37 -40 30 c-23 17 -47 30 -54 30 -23 0 -3 -25
47 -59 l49 -33 59 46 c32 25 62 46 66 46 4 0 6 -30 4 -67 l-3 -68 -127 -3
-128 -3 0 81 0 80 110 0 c61 0 110 -2 110 -4z"/>
</g>
</svg>
