<?xml version="1.0" encoding="UTF-8"?>
<!DOCTYPE svg PUBLIC "-//W3C//DTD SVG 1.1//EN" "http://www.w3.org/Graphics/SVG/1.1/DTD/svg11.dtd">
<!-- Creator: CorelDRAW 2020 (64-Bit) -->
<svg xmlns="http://www.w3.org/2000/svg" xml:space="preserve" width="7.24448cm" height="3.58582cm" version="1.1" style="shape-rendering:geometricPrecision; text-rendering:geometricPrecision; image-rendering:optimizeQuality; fill-rule:evenodd; clip-rule:evenodd"
viewBox="0 0 7230.25 3578.78"
 xmlns:xlink="http://www.w3.org/1999/xlink"
 xmlns:xodm="http://www.corel.com/coreldraw/odm/2003">
 <defs>
  <style type="text/css">
   <![CDATA[
    .fil0 {fill:#1A3A8E}
   ]]>
  </style>
 </defs>
 <g id="Layer_x0020_1">
  <metadata id="CorelCorpID_0Corel-Layer"/>
  <path class="fil0" d="M6983.08 1391.76l-411.33 1942.17c-28.14,133.09 -159.92,244.85 -296.92,244.85l-4558.49 0c-139.4,0 -226.03,-115.88 -197.52,-250.25l410.15 -1936.77 5054.1 0zm-6396.48 -929.03l1125.07 0c60.41,0 109.82,49.47 109.82,109.88 0,60.41 -49.51,109.83 -109.82,109.83l-1125.07 0c-60.31,0 -109.88,-49.42 -109.88,-109.83 0,-60.41 49.47,-109.88 109.88,-109.88zm-476.73 981.91l1125.07 0c60.41,0 109.83,49.46 109.83,109.87 0,60.42 -49.52,109.83 -109.83,109.83l-1125.07 0c-60.31,0 -109.87,-49.41 -109.87,-109.83 0,-60.41 49.46,-109.87 109.87,-109.87zm619.08 -469.61l1125.07 0c60.41,0 109.82,49.47 109.82,109.88 0,60.41 -49.51,109.83 -109.82,109.83l-1125.07 0c-60.31,0 -109.88,-49.42 -109.88,-109.83 0,-60.41 49.47,-109.88 109.88,-109.88zm1739.87 -975.03l4558.44 0c139.4,0 226.07,115.84 197.57,250.25l-117.57 555.26 -5054.09 0 118.74 -560.65c28.19,-133.14 159.86,-244.86 296.92,-244.86zm4279.85 1584.75l-4666.94 0 -370.51 1749.18c-5.91,27.99 11.35,51.81 40.56,51.81l4558.44 0c31.2,0 62.76,-26.92 69.16,-57.21l369.29 -1743.78zm-4461.08 -972.24l4666.94 0 77.92 -367.66c5.9,-28.04 -11.35,-51.81 -40.56,-51.81l-4558.44 0c-31.2,0 -62.71,26.87 -69.16,57.2l-76.7 362.27z"/>
 </g>
</svg>
