<?xml version="1.0" encoding="UTF-8"?>
<!DOCTYPE svg PUBLIC "-//W3C//DTD SVG 1.1//EN" "http://www.w3.org/Graphics/SVG/1.1/DTD/svg11.dtd">
<!-- Creator: CorelDRAW 2020 (64-Bit) -->
<svg xmlns="http://www.w3.org/2000/svg" xml:space="preserve" width="5.03621cm" height="3.43893cm" version="1.1" style="shape-rendering:geometricPrecision; text-rendering:geometricPrecision; image-rendering:optimizeQuality; fill-rule:evenodd; clip-rule:evenodd"
viewBox="0 0 6778.29 4628.49"
 xmlns:xlink="http://www.w3.org/1999/xlink"
 xmlns:xodm="http://www.corel.com/coreldraw/odm/2003">
 <defs>
  <style type="text/css">
   <![CDATA[
    .fil0 {fill:#1A3A8E}
   ]]>
  </style>
 </defs>
 <g id="Layer_x0020_1">
  <metadata id="CorelCorpID_0Corel-Layer"/>
  <path class="fil0" d="M3514.59 2649.41l0 -146.66 32.79 0 0 -219.59 -32.79 0 0 -141.48 178.52 0 0 507.73 -178.52 0zm-3237.75 -2372.52l6224.61 0 0 4074.7 -6224.61 0 0 -4074.7zm-7.21 -276.89l6239.04 0c148.32,0 269.63,122.06 269.63,269.69l0 4089.17c0,147.57 -122.06,269.63 -269.63,269.63l-6239.04 0c-147.57,0 -269.63,-121.31 -269.63,-269.63l0 -4089.17c0,-148.39 121.31,-269.69 269.63,-269.69zm3244.75 2473.04l-250.47 0 0 -160.11 250.47 0 0 160.11zm-429.25 -331.36l178.45 0 0 141.48 -32.67 0 0 219.59 32.67 0 0 146.66 -178.45 0 0 -507.73zm304.01 -1139.3l346.06 911.15 973.54 47.63 -759.61 610.75 255.53 940.54 -815.53 -533.67 -815.57 533.67 255.59 -940.54 -759.66 -610.75 973.54 -47.63 346.1 -911.15z"/>
 </g>
</svg>
